:SAMPLES-PER-SECOND 30
:FRAME-RANGE 1-2091
:FULLY-SPECIFIED
:DEGREES
1830
root  69.3463 39.2917 -60.4546 -5.67434 -49.5895 6.61435
RightUpLeg  -22.975 -10.2052 2.13195
RightLeg  30.0624 -11.1523 -7.11978
RightFoot  -5.27805 -0.0731543 0.704093
RightToes  5.38607e-012 1.2921e-014 -6.02303e-014
Spine  -4.74979 -5.43966 -8.66364
Spine1  6.48588 -6.01958 2.59945
HEad  15.3669 17.4211 0.59423
LeftShoulder1  1.46735 -4.16079 -12.8654
LeftArm  -7.92128 -31.0493 -38.2119
LeftForeArm  -9.68604 -16.7095 -6.95656
LeftHand  0.00346343 2.12543 -0.546818
RightShoulder  0.829338 -0.751473 26.2668
RightArm  -26.0754 -11.956 44.0366
RightForeArm  63.0733 -5.60541 3.76991
RightHand  0.282368 -7.55926 -16.0914
LeftUpLeg  -1.14168 2.52776 -4.90976
LeftLeg  14.1477 0.370885 0.632649
LeftFoot  -12.1706 0.0704503 -0.358008
LeftToes  -7.20997e-011 3.75522e-011 -2.80735e-011
1831
root  68.631 39.2618 -59.5736 -5.58838 -50.5965 7.0101
RightUpLeg  -21.7418 -14.4342 4.49237
RightLeg  17.5502 -12.8795 -4.71428
RightFoot  -5.58611 -0.0615404 0.469533
RightToes  5.38607e-012 1.2921e-014 -6.02303e-014
Spine  -5.4498 -5.44614 -8.16606
Spine1  6.58826 -5.88411 2.57941
HEad  16.0452 17.6399 0.599088
LeftShoulder1  1.42018 -4.05189 -12.478
LeftArm  -8.00585 -31.6362 -37.3882
LeftForeArm  -10.2622 -17.4367 -6.70008
LeftHand  0.00581033 2.01299 -0.588895
RightShoulder  0.818931 -0.787932 26.3218
RightArm  -26.5539 -12.492 43.709
RightForeArm  63.4185 -5.55073 3.51528
RightHand  0.287168 -7.58841 -16.1306
LeftUpLeg  1.02676 2.48845 -5.49726
LeftLeg  12.7178 1.58378 0.848873
LeftFoot  -13.1381 0.0751183 -0.237011
LeftToes  -7.20997e-011 3.75522e-011 -2.80735e-011
1832
root  67.8544 39.136 -58.7121 -5.82039 -51.5513 7.87509
RightUpLeg  -19.1693 -5.74736 1.06903
RightLeg  5.69543 -23.5998 1.34172
RightFoot  -6.25392 -0.0498062 0.165757
RightToes  5.38607e-012 1.2921e-014 -6.02303e-014
Spine  -6.25331 -5.4493 -7.96567
Spine1  6.72233 -5.7653 2.52825
HEad  16.8406 17.9243 0.377071
LeftShoulder1  1.35165 -3.81697 -12.1173
LeftArm  -7.53204 -31.969 -36.919
LeftForeArm  -10.9223 -18.4113 -6.4056
LeftHand  0.0226911 2.2657 -1.33372
RightShoulder  0.803313 -0.825949 26.1783
RightArm  -27.0258 -12.8992 43.6956
RightForeArm  64.1552 -5.48402 3.27362
RightHand  0.296935 -7.67928 -16.0043
LeftUpLeg  2.96956 2.41524 -6.33766
LeftLeg  11.7282 2.81488 0.948267
LeftFoot  -14.3348 0.0914391 0.207679
LeftToes  -7.20997e-011 3.75522e-011 -2.80735e-011
1833
root  67.0429 38.9409 -57.8577 -6.18328 -52.0656 8.66306
RightUpLeg  -18.0049 -0.133895 -0.394947
RightLeg  -2.91862 -28.0562 4.18529
RightFoot  -7.16128 -0.00649493 -1.15136
RightToes  5.38607e-012 1.2921e-014 -6.02303e-014
Spine  -6.74322 -5.50168 -7.71682
Spine1  6.78871 -5.76632 2.52426
HEad  17.0968 18.1818 -0.156129
LeftShoulder1  1.31901 -3.64384 -12.1204
LeftArm  -6.28907 -32.0247 -36.4586
LeftForeArm  -11.6518 -19.9072 -6.01612
LeftHand  0.0320941 2.33482 -1.74626
RightShoulder  0.771808 -0.922875 26.1595
RightArm  -27.3851 -13.1059 43.5545
RightForeArm  64.6081 -5.43326 3.06776
RightHand  0.308535 -7.764 -16.0071
LeftUpLeg  4.7533 2.40742 -7.07933
LeftLeg  11.5654 3.33902 0.945027
LeftFoot  -15.9104 0.0966595 0.0304109
LeftToes  -7.20997e-011 3.75522e-011 -2.80735e-011
1834
root  66.221 38.7004 -56.9867 -6.58984 -52.091 9.34546
RightUpLeg  -18.3192 0.609241 -0.393843
RightLeg  -3.85113 -28.344 3.60402
RightFoot  -8.17405 -0.0704526 0.543212
RightToes  5.38607e-012 1.2921e-014 -6.02303e-014
Spine  -6.82196 -5.61759 -7.37076
Spine1  6.81448 -5.91427 2.56101
HEad  16.1903 18.2963 -1.28371
LeftShoulder1  1.32993 -3.59165 -12.4544
LeftArm  -5.63885 -31.8645 -36.363
LeftForeArm  -12.0729 -21.3194 -5.71184
LeftHand  0.0409814 2.34246 -2.09965
RightShoulder  0.732343 -1.04432 26.1342
RightArm  -27.7719 -13.1472 43.4043
RightForeArm  64.8432 -5.38548 2.8334
RightHand  0.320504 -7.84683 -16.0369
LeftUpLeg  6.16337 2.34317 -7.82495
LeftLeg  12.5344 3.38235 1.05627
LeftFoot  -17.6253 0.0897037 -0.291798
LeftToes  -7.20997e-011 3.75522e-011 -2.80735e-011
1835
root  65.4074 38.627 -56.1586 -6.07192 -52.2777 8.61566
RightUpLeg  -19.6652 -0.160088 0.180338
RightLeg  1.58944 -25.928 2.14566
RightFoot  -5.94946 0.137975 -3.78175
RightToes  5.38607e-012 1.2921e-014 -6.02303e-014
Spine  -6.70669 -5.48795 -5.89877
Spine1  7.52448 -6.05446 2.82226
HEad  14.2844 17.7857 -2.96592
LeftShoulder1  1.38756 -3.78074 -12.7851
LeftArm  -7.10211 -30.5837 -36.7517
LeftForeArm  -11.972 -23.7319 -5.65777
LeftHand  0.0538436 2.20335 -2.45604
RightShoulder  0.753193 -0.963704 25.9102
RightArm  -28.0306 -13.0164 43.3309
RightForeArm  64.5199 -5.37237 2.68526
RightHand  0.306172 -7.75566 -15.9516
LeftUpLeg  7.99743 2.321 -7.56716
LeftLeg  12.8129 3.27268 1.18168
LeftFoot  -18.2137 0.0440043 -1.08629
LeftToes  -7.20997e-011 3.75522e-011 -2.80735e-011
1836
root  64.505 38.7137 -55.3539 -4.42587 -52.1405 6.65927
RightUpLeg  -20.1273 0.573526 1.5773
RightLeg  5.27667 -26.095 -0.25409
RightFoot  -2.18171 0.464365 -5.97134
RightToes  5.38607e-012 1.2921e-014 -6.02303e-014
Spine  -6.77891 -5.48451 -4.15531
Spine1  8.15382 -6.549 3.82998
HEad  13.3261 16.412 -3.78477
LeftShoulder1  1.43203 -3.72135 -13.6654
LeftArm  -9.94432 -28.439 -37.0749
LeftForeArm  -10.6293 -27.0671 -6.36341
LeftHand  0.0804685 1.98078 -3.17366
RightShoulder  0.682029 -1.21604 26.3711
RightArm  -27.6271 -12.5613 42.4536
RightForeArm  64.2224 -5.40614 2.82261
RightHand  0.29564 -7.68173 -15.9284
LeftUpLeg  9.49367 1.99495 -6.40625
LeftLeg  13.4184 2.99589 1.33422
LeftFoot  -17.5958 -0.0409719 -2.68023
LeftToes  -7.20997e-011 3.75522e-011 -2.80735e-011
